<?xml version="1.0" encoding="utf-8"?>
<!-- Svg Vector Icons : http://www.onlinewebfonts.com/icon -->
<!DOCTYPE svg PUBLIC "-//W3C//DTD SVG 1.1//EN" "http://www.w3.org/Graphics/SVG/1.1/DTD/svg11.dtd">
<svg version="1.1" xmlns="http://www.w3.org/2000/svg" xmlns:xlink="http://www.w3.org/1999/xlink" x="0px" y="0px" viewBox="0 0 1000 1000" enable-background="new 0 0 1000 1000" xml:space="preserve">
<metadata> Svg Vector Icons : http://www.onlinewebfonts.com/icon </metadata>
<g><path d="M34.5,10v980V10z"/><path d="M59,10v980V10z"/><path d="M83.5,10v980V10z"/><path d="M108,10v980V10z"/><path d="M132.5,10v980V10z"/><path d="M157,10v980V10z"/><path d="M181.5,10v980V10z"/><path d="M206,10v980V10z"/><path d="M230.5,10v980V10z"/><path d="M255,10v980V10z"/><path d="M279.5,10v980V10z"/><path d="M304,10v980V10z"/><path d="M328.5,10v980V10z"/><path d="M353,10v980V10z"/><path d="M377.5,10v980V10z"/><path d="M402,10v980V10z"/><path d="M426.5,10v980V10z"/><path d="M451,10v980V10z"/><path d="M475.5,10v980V10z"/><path d="M500,10v980V10z"/><path d="M524.5,10v980V10z"/><path d="M549,10v980V10z"/><path d="M573.5,10v980V10z"/><path d="M598,10v980V10z"/><path d="M622.5,10v980V10z"/><path d="M647,10v980V10z"/><path d="M671.5,10v980V10z"/><path d="M696,10v980V10z"/><path d="M720.5,10v980V10z"/><path d="M745,10v980V10z"/><path d="M769.5,10v980V10z"/><path d="M794,10v980V10z"/><path d="M818.5,10v980V10z"/><path d="M843,10v980V10z"/><path d="M867.5,10v980V10z"/><path d="M892,10v980V10z"/><path d="M916.5,10v980V10z"/><path d="M941,10v980V10z"/><path d="M965.5,10v980V10z"/><path d="M10,34.5h980H10z"/><path d="M10,59h980H10z"/><path d="M10,83.5h980H10z"/><path d="M10,108h980H10z"/><path d="M10,132.5h980H10z"/><path d="M10,157h980H10z"/><path d="M10,181.5h980H10z"/><path d="M10,206h980H10z"/><path d="M10,230.5h980H10z"/><path d="M10,255h980H10z"/><path d="M10,279.5h980H10z"/><path d="M10,304h980H10z"/><path d="M10,328.5h980H10z"/><path d="M10,353h980H10z"/><path d="M10,377.5h980H10z"/><path d="M10,402h980H10z"/><path d="M10,426.5h980H10z"/><path d="M10,451h980H10z"/><path d="M10,475.5h980H10z"/><path d="M10,500h980H10z"/><path d="M10,524.5h980H10z"/><path d="M10,549h980H10z"/><path d="M10,573.5h980H10z"/><path d="M10,598h980H10z"/><path d="M10,622.5h980H10z"/><path d="M10,647h980H10z"/><path d="M10,671.5h980H10z"/><path d="M10,696h980H10z"/><path d="M10,720.5h980H10z"/><path d="M10,745h980H10z"/><path d="M10,769.5h980H10z"/><path d="M10,794h980H10z"/><path d="M10,818.5h980H10z"/><path d="M10,843h980H10z"/><path d="M10,867.5h980H10z"/><path d="M10,892h980H10z"/><path d="M10,916.5h980H10z"/><path d="M10,941h980H10z"/><path d="M10,965.5h980H10z"/><path d="M667.5,382.4c13.3-13.1,34.7-13.1,48,0c13.3,13.1,13.3,34.3,0,47.5L524,617.6c-13.3,13.1-34.7,13.1-48,0L284.5,429.9c-13.2-13.1-13.2-34.3,0-47.5c13.3-13.1,34.7-13.1,48,0L500,536.3L667.5,382.4z"/></g>
</svg>