<?xml version="1.0" encoding="UTF-8"?>
<svg width="64px" height="64px" viewBox="0 0 64 64" version="1.1" xmlns="http://www.w3.org/2000/svg" xmlns:xlink="http://www.w3.org/1999/xlink">
    <!-- Generator: Sketch 55.2 (78181) - https://sketchapp.com -->
    <title>Icon / Extended Warranty</title>
    <desc>Created with Sketch.</desc>
    <defs>
        <path d="M49.7796,42 C49.3516,42.739 47.1736,43.392 45.5826,43.869 C43.8626,44.385 42.0836,44.918 40.4516,45.862 C38.8676,46.779 37.5586,48.032 36.2916,49.244 C35.0076,50.472 33.4106,52 32.4546,52 C31.4996,52 29.9026,50.472 28.6186,49.244 C27.3516,48.032 26.0416,46.779 24.4586,45.863 C22.8256,44.918 21.0476,44.385 19.3276,43.87 C17.7366,43.393 15.5576,42.739 15.1306,42 C14.7466,41.337 15.2486,39.166 15.6156,37.581 C16.0086,35.879 16.4546,33.951 16.4546,32 C16.4546,30.049 16.0086,28.121 15.6156,26.419 C15.2486,24.834 14.7466,22.663 15.1306,22 C15.5576,21.261 17.7366,20.608 19.3276,20.131 C21.0476,19.615 22.8256,19.082 24.4576,18.138 C26.0416,17.221 27.3516,15.968 28.6186,14.756 C29.9026,13.528 31.4996,12 32.4546,12 C33.4106,12 35.0076,13.528 36.2906,14.756 C37.5576,15.968 38.8676,17.221 40.4516,18.137 C42.0836,19.082 43.8626,19.615 45.5816,20.13 C47.1736,20.607 49.3516,21.261 49.7796,22 C50.1626,22.663 49.6606,24.834 49.2946,26.419 C48.9006,28.121 48.4546,30.049 48.4546,32 C48.4546,33.951 48.9016,35.879 49.2946,37.581 C49.6606,39.166 50.1636,41.337 49.7796,42 M52.4546,32 C52.4546,36.008 55.1146,40.767 53.2416,44.003 C51.3106,47.342 45.7936,47.393 42.4546,49.325 C39.2186,51.197 36.4626,56 32.4546,56 C28.4466,56 25.6916,51.197 22.4546,49.325 C19.1166,47.393 13.5996,47.342 11.6676,44.003 C9.7956,40.767 12.4546,36.008 12.4546,32 C12.4546,27.992 9.7956,23.233 11.6676,19.997 C13.5996,16.658 19.1156,16.607 22.4546,14.675 C25.6916,12.803 28.4466,8 32.4546,8 C36.4626,8 39.2186,12.803 42.4546,14.675 C45.7936,16.607 51.3096,16.658 53.2416,19.997 C55.1136,23.233 52.4546,27.992 52.4546,32 Z M31.7361,34.5874 L27.2891,30.2464 L24.4551,33.0134 L28.9011,37.3534 C29.6541,38.0884 30.6781,38.5004 31.7371,38.5004 C31.8021,38.5004 31.8681,38.4984 31.9351,38.4954 C33.0631,38.4404 34.1221,37.9194 34.8381,37.0654 L42.4551,27.9774 L39.3521,25.5004 L31.7361,34.5874 Z" id="path-1"></path>
    </defs>
    <g id="Icon-/-Extended-Warranty" stroke="none" stroke-width="1" fill="none" fill-rule="evenodd">
        <mask id="mask-2" fill="white">
            <use xlink:href="#path-1"></use>
        </mask>
        <use id="Mask" fill="#000000" xlink:href="#path-1"></use>
        <g id="/xDark" mask="url(#mask-2)" fill="#4A4A4A">
            <rect id="Default" x="0" y="0" width="64" height="64"></rect>
        </g>
    </g>
</svg>