<?xml version="1.0" encoding="UTF-8"?>
<svg width="64px" height="64px" viewBox="0 0 64 64" version="1.1" xmlns="http://www.w3.org/2000/svg" xmlns:xlink="http://www.w3.org/1999/xlink">
    <!-- Generator: Sketch 54.1 (76490) - https://sketchapp.com -->
    <title>Icon / Shop Customer Care</title>
    <desc>Created with Sketch.</desc>
    <defs>
        <path d="M37.91733,44.3752906 L35.4996015,48.0028042 C35.06765,48.6487176 34.4727168,49.174647 33.7777948,49.5216005 C32.403949,50.2105081 30.7971294,50.1485164 29.4772776,49.3566226 L28.6863664,48.8826862 C25.5077232,46.9759419 22.5660534,44.6792498 19.942348,42.0566015 C17.3206423,39.434953 15.0239002,36.4923476 13.1161143,33.3137738 L12.6421675,32.5228799 C11.8512563,31.2050566 11.7892633,29.5972722 12.4771861,28.2224565 C12.8241471,27.5265498 13.3500881,26.9326295 13.9960156,26.5006874 L17.6236083,24.0820117 C17.7095987,24.0250194 17.8055879,23.998023 17.9015771,23.998023 C18.0575596,23.998023 18.2115423,24.0710132 18.3095313,24.2079948 L21.5641659,28.7663836 C21.7071499,28.9653569 21.6851523,29.2363206 21.5111719,29.4102973 L19.4724008,31.448024 C18.7794785,32.1409311 18.3985213,33.0618076 18.3985213,34.0406764 C18.3985213,35.0215448 18.7804784,35.9414215 19.4714009,36.6333287 L25.3657391,42.5265385 C26.7505837,43.9113528 29.1663125,43.9143524 30.551157,42.5265385 L32.590928,40.4878119 C32.7639086,40.3148351 33.0348782,40.292838 33.2348557,40.4368187 L37.7913442,43.6893826 C38.0123194,43.8483612 38.0683131,44.148321 37.91733,44.3752906 M40.1160832,40.4358188 C42.1048599,41.8566283 42.5998044,44.5622655 41.2449565,46.5939931 L38.8272279,50.2225065 C38.0093197,51.4463424 36.8824462,52.441209 35.5665939,53.1001207 C34.3647289,53.7000402 33.0688744,53.9990001 31.7750196,54 C30.2671889,54 28.7643576,53.5930546 27.4195086,52.7861628 L26.6285974,52.3112264 C23.1699856,50.2365047 19.969345,47.7378397 17.1146654,44.8842223 C14.2619857,42.0316049 11.7632662,38.831034 9.68749925,35.3714979 L9.21255257,34.580604 C7.71472073,32.0839387 7.59773386,29.0383471 8.89958771,26.4336964 C9.55751385,25.116873 10.5524022,23.9890242 11.7772646,23.1731336 L15.4048574,20.7544579 C17.4386291,19.3996396 20.1433254,19.8955731 21.5641659,21.8843064 L24.8188005,26.4406955 C26.1026564,28.2374545 25.9006791,30.6761275 24.3388544,32.2379181 L22.5360568,34.0406764 L27.959448,39.4639492 L29.7622456,37.6611909 C31.3220705,36.0974006 33.7607967,35.8954277 35.5595947,37.1822551 L40.1160832,40.4358188 Z M32.2026716,30.4972515 C29.8869316,30.4972515 28.0031431,28.6135041 28.0031431,26.2978146 L28.0031431,14.1994369 C28.0031431,11.8837474 29.8869316,10 32.2026716,10 L51.8004715,10 C54.1162115,10 56,11.8837474 56,14.1994369 L56,26.2978146 C56,28.6135041 54.1162115,30.4972515 51.8004715,30.4972515 L40.8297031,30.4972515 L36.6551717,34.6716918 L33.8274892,31.8440709 L39.1728891,26.4977878 L51.8004715,26.4977878 C51.9104591,26.4977878 52.000449,26.4077999 52.000449,26.2978146 L52.000449,14.1994369 C52.000449,14.0894516 51.9104591,13.9994637 51.8004715,13.9994637 L32.2026716,13.9994637 C32.0926839,13.9994637 32.002694,14.0894516 32.002694,14.1994369 L32.002694,26.2978146 C32.002694,26.4077999 32.0926839,26.4977878 32.2026716,26.4977878 L34.4024246,26.4977878 L34.4024246,30.4972515 L32.2026716,30.4972515 Z M34.0018696,21.9982911 L34.0018696,17.9988274 L38.0014206,17.9988274 L38.0014206,21.9982911 L34.0018696,21.9982911 Z M40.0011961,21.9982911 L40.0011961,17.9988274 L44.0007471,17.9988274 L44.0007471,21.9982911 L40.0011961,21.9982911 Z M46.0005226,21.9982911 L46.0005226,17.9988274 L50.0000736,17.9988274 L50.0000736,21.9982911 L46.0005226,21.9982911 Z" id="path-1"></path>
    </defs>
    <g id="Icon-/-Shop-Customer-Care" stroke="none" stroke-width="1" fill="none" fill-rule="evenodd">
        <mask id="mask-2" fill="white">
            <use xlink:href="#path-1"></use>
        </mask>
        <use id="Mask" fill="#000000" xlink:href="#path-1"></use>
        <g id="/xDark" mask="url(#mask-2)" fill="#4A4A4A">
            <rect id="Default" x="0" y="0" width="64" height="64"></rect>
        </g>
    </g>
</svg>