<?xml version="1.0" encoding="UTF-8"?>
<svg width="64px" height="64px" viewBox="0 0 64 64" version="1.1" xmlns="http://www.w3.org/2000/svg" xmlns:xlink="http://www.w3.org/1999/xlink">
    <!-- Generator: Sketch 54.1 (76490) - https://sketchapp.com -->
    <title>Icon / Shop Financing</title>
    <desc>Created with Sketch.</desc>
    <defs>
        <path d="M47,46 C47,47.103 46.103,48 45,48 L19,48 C17.897,48 17,47.103 17,46 L17,25 L47,25 L47,46 Z M45,13 C48.309,13 51,15.691 51,19 L51,46 C51,49.309 48.309,52 45,52 L19,52 C15.691,52 13,49.309 13,46 L13,19 C13,15.691 15.691,13 19,13 L21,13 L21,17 L19,17 C17.897,17 17,17.897 17,19 L17,21 L47,21 L47,19 C47,17.897 46.103,17 45,17 L43,17 L43,13 L45,13 Z M33.5,17 L30.5,17 L29,17 L29,13 L30.5,13 L33.5,13 L35,13 L35,17 L33.5,17 Z M23,18 L23,12 L27,12 L27,18 L23,18 Z M37,18 L37,12 L41,12 L41,18 L37,18 Z M30.1152,36.9531 L32.9362,37.8921 C33.2732,38.0051 33.5002,38.3191 33.5002,38.6761 C33.5002,39.1301 33.1302,39.5001 32.6752,39.5001 L28.0002,39.5001 L28.0002,42.5001 L30.5002,42.5001 L30.5002,43.5001 L33.5002,43.5001 L33.5002,42.4051 C35.2132,42.0261 36.5002,40.5001 36.5002,38.6761 C36.5002,37.0261 35.4492,35.5681 33.8852,35.0471 L31.0632,34.1071 C30.7262,33.9951 30.5002,33.6811 30.5002,33.3241 C30.5002,32.8701 30.8702,32.5001 31.3242,32.5001 L36.0002,32.5001 L36.0002,29.5001 L33.5002,29.5001 L33.5002,28.5001 L30.5002,28.5001 L30.5002,29.5951 C28.7872,29.9741 27.5002,31.5001 27.5002,33.3241 C27.5002,34.9741 28.5512,36.4321 30.1152,36.9531 Z" id="path-1"></path>
    </defs>
    <g id="Icon-/-Shop-Financing" stroke="none" stroke-width="1" fill="none" fill-rule="evenodd">
        <mask id="mask-2" fill="white">
            <use xlink:href="#path-1"></use>
        </mask>
        <use id="Mask" fill="#000000" xlink:href="#path-1"></use>
        <g id="/xDark" mask="url(#mask-2)" fill="#4A4A4A">
            <rect id="Default" x="0" y="0" width="64" height="64"></rect>
        </g>
    </g>
</svg>