<?xml version="1.0" encoding="UTF-8"?>
<svg width="64px" height="64px" viewBox="0 0 64 64" version="1.1" xmlns="http://www.w3.org/2000/svg" xmlns:xlink="http://www.w3.org/1999/xlink">
    <!-- Generator: Sketch 54.1 (76490) - https://sketchapp.com -->
    <title>Icon / Shop Delivery</title>
    <desc>Created with Sketch.</desc>
    <defs>
        <path d="M44,46 C42.897,46 42,45.103 42,44 C42,42.897 42.897,42 44,42 C45.103,42 46,42.897 46,44 C46,45.103 45.103,46 44,46 L44,46 Z M18,42 C19.103,42 20,42.897 20,44 C20,45.103 19.103,46 18,46 C16.897,46 16,45.103 16,44 C16,42.897 16.897,42 18,42 L18,42 Z M56,31.242 L56,39 C56,41.757 53.757,44 51,44 L50,44 C50,47.309 47.309,50 44,50 C40.691,50 38,47.309 38,44 C38,40.691 40.691,38 44,38 C45.771,38 47.36,38.775 48.459,40 L51,40 C51.551,40 52,39.552 52,39 L52,31.242 C52,30.979 51.894,30.722 51.708,30.535 L40.343,19.172 C39.588,18.416 38.583,18 37.515,18 L13,18 C12.449,18 12,18.448 12,19 L12,39 C12,39.552 12.449,40 13,40 L13.541,40 C14.64,38.775 16.229,38 18,38 C21.309,38 24,40.691 24,44 C24,47.309 21.309,50 18,50 C14.691,50 12,47.309 12,44 C12,43.966 12.004,43.934 12.005,43.899 C9.723,43.437 8,41.416 8,39 L8,19 C8,16.243 10.243,14 13,14 L37.515,14 C39.652,14 41.662,14.833 43.172,16.344 L54.536,27.707 C55.466,28.638 56,29.926 56,31.242 Z M26,44 L26,40 L36,40 L36,44 L26,44 Z" id="path-1"></path>
    </defs>
    <g id="Icon-/-Shop-Delivery" stroke="none" stroke-width="1" fill="none" fill-rule="evenodd">
        <mask id="mask-2" fill="white">
            <use xlink:href="#path-1"></use>
        </mask>
        <use id="Shape" fill="#000000" xlink:href="#path-1"></use>
        <g id="/xDark" mask="url(#mask-2)" fill="#4A4A4A">
            <rect id="Default" x="0" y="0" width="64" height="64"></rect>
        </g>
    </g>
</svg>